<svg width="103" height="31" viewBox="0 0 103 31" fill="none" xmlns="http://www.w3.org/2000/svg">
<path d="M13.9946 13.7221H9.4659L11.6792 7.4229L13.9946 13.7221ZM8.68275 0L0 23.154H6.16305L7.7634 18.5913H15.7652L17.4336 23.4945L23.5286 22.8816L14.8799 0H8.68275Z" fill="white"/>
<path d="M36.7378 6.6738V17.7741C36.42 17.9103 36.0455 18.0578 35.6142 18.2167C35.2056 18.3529 34.797 18.4778 34.3884 18.5913C34.0025 18.6821 33.6733 18.7275 33.4009 18.7275C32.7199 18.7275 32.2546 18.5232 32.0049 18.1146C31.7552 17.706 31.6303 17.252 31.6303 16.7526V6.6738H25.4332V17.3314C25.4332 18.5572 25.6375 19.6582 26.0461 20.6343C26.4774 21.5877 27.1357 22.3481 28.021 22.9156C28.9063 23.4604 30.0413 23.7328 31.426 23.7328C32.3113 23.7328 33.1626 23.608 33.9798 23.3583C34.8197 23.1313 35.5915 22.8475 36.2952 22.507C36.9989 22.1665 37.6231 21.826 38.1679 21.4855L39.9385 23.188H42.9349V6.6738H36.7378Z" fill="white"/>
<path d="M51.9701 23.154L54.1153 19.6128L56.3285 23.154H63.2747L57.6565 15.2885L63.2747 6.63975H56.4307L53.911 10.6236L51.0167 6.129L45.0239 7.5591L50.3698 14.9479L44.9899 23.154H51.9701Z" fill="white"/>
<path d="M71.7069 30.2705V9.77235L68.6084 6.6738H65.5098V30.611L71.7069 30.2705ZM69.698 13.0752C70.3563 12.3942 70.9692 11.8494 71.5367 11.4408C72.1042 11.0322 72.6603 10.8279 73.2051 10.8279C73.8634 10.8279 74.4082 10.9754 74.8395 11.2705C75.2935 11.5656 75.634 12.0083 75.861 12.5985C76.1107 13.166 76.2356 13.8697 76.2356 14.7096C76.2356 15.5495 76.1107 16.2759 75.861 16.8888C75.6113 17.5017 75.2822 17.9671 74.8736 18.2849C74.465 18.6027 73.9996 18.7616 73.4775 18.7616C72.8873 18.7616 72.2744 18.6027 71.6388 18.2849C71.0032 17.9444 70.3563 17.4676 69.698 16.8547L67.9614 20.4981C68.597 21.2245 69.2326 21.8147 69.8682 22.2687C70.5265 22.7 71.1848 23.0178 71.8431 23.2221C72.5241 23.4264 73.2051 23.5285 73.8861 23.5285C75.634 23.5285 77.1549 23.1994 78.4488 22.5411C79.7654 21.8828 80.7869 20.8954 81.5133 19.5788C82.2624 18.2622 82.637 16.6277 82.637 14.6755C82.637 12.7006 82.2624 11.0776 81.5133 9.8064C80.7869 8.5352 79.7881 7.59315 78.5169 6.98025C77.2457 6.36735 75.7929 6.0609 74.1585 6.0609C73.3186 6.0609 72.5014 6.20845 71.7069 6.50355C70.9124 6.79865 70.186 7.18455 69.5277 7.66125C68.8921 8.11525 68.37 8.59195 67.9614 9.09135L69.698 13.0752Z" fill="white"/>
<path d="M93.23 23.5285C91.4594 23.5285 89.8704 23.2107 88.463 22.5751C87.0783 21.9395 85.9887 20.9748 85.1942 19.6809C84.3997 18.387 84.0024 16.7639 84.0024 14.8117C84.0024 12.9503 84.4224 11.3727 85.2623 10.0788C86.1022 8.7849 87.2258 7.79745 88.6332 7.11645C90.0633 6.41275 91.641 6.0609 93.3662 6.0609C95.1822 6.0609 96.7939 6.4014 98.2013 7.0824C99.6087 7.7407 100.71 8.72815 101.504 10.0447C102.321 11.3613 102.73 13.0071 102.73 14.982C102.73 16.8207 102.299 18.3757 101.436 19.6469C100.596 20.9181 99.4611 21.8828 98.031 22.5411C96.6009 23.1994 95.0006 23.5285 93.23 23.5285ZM93.2981 18.4892C93.9564 18.4892 94.5012 18.3643 94.9325 18.1146C95.3865 17.8422 95.727 17.4449 95.954 16.9228C96.2037 16.4007 96.3285 15.7538 96.3285 14.982C96.3285 14.2329 96.215 13.5746 95.988 13.0071C95.761 12.4169 95.4319 11.9516 95.0006 11.611C94.592 11.2705 94.0699 11.1003 93.4343 11.1003C92.7987 11.1003 92.2539 11.2479 91.7999 11.5429C91.3459 11.838 90.994 12.2693 90.7443 12.8368C90.5173 13.3816 90.4038 14.0399 90.4038 14.8117C90.4038 15.5381 90.5173 16.1851 90.7443 16.7526C90.9713 17.2974 91.3005 17.7287 91.7318 18.0465C92.1631 18.3416 92.6852 18.4892 93.2981 18.4892Z" fill="white"/>
</svg>
