<?xml version="1.0" standalone="no"?>
<!DOCTYPE svg PUBLIC "-//W3C//DTD SVG 20010904//EN"
 "http://www.w3.org/TR/2001/REC-SVG-20010904/DTD/svg10.dtd">
<svg version="1.0" xmlns="http://www.w3.org/2000/svg"
 width="700.000000pt" height="700.000000pt" viewBox="0 0 700.000000 700.000000"
 preserveAspectRatio="xMidYMid meet">
<metadata>
Created by potrace 1.14, written by Peter Selinger 2001-2017
</metadata>
<g transform="translate(0.000000,700.000000) scale(0.100000,-0.100000)"
fill="#000000" stroke="none">
<path d="M1999 6806 c-2 -3 -33 -7 -69 -11 -124 -12 -206 -28 -340 -66 -699
-200 -1254 -762 -1468 -1489 -17 -58 -34 -123 -38 -145 -5 -22 -9 -42 -9 -45
-1 -3 -5 -25 -9 -50 -5 -25 -10 -53 -11 -62 -2 -9 -7 -48 -12 -85 -11 -90 -10
-2791 0 -2868 5 -33 10 -69 12 -80 20 -150 79 -362 143 -521 246 -605 731
-1061 1337 -1255 110 -35 302 -75 410 -85 102 -10 2813 -11 2920 -1 703 62
1322 483 1673 1137 81 152 173 394 202 533 5 29 13 63 16 77 14 66 34 214 40
300 8 116 10 578 2 585 -3 3 -38 -13 -78 -35 -172 -98 -470 -214 -624 -244
-11 -2 -55 -11 -96 -19 -98 -20 -131 -25 -215 -34 -88 -10 -430 -10 -510 0
-161 20 -138 16 -349 62 -51 12 -230 71 -306 102 -314 128 -587 310 -836 558
-332 332 -554 710 -683 1165 -25 89 -36 136 -66 284 -3 10 -7 44 -11 75 -3 31
-8 59 -10 62 -5 8 -17 240 -18 324 0 82 12 311 19 343 2 12 7 60 10 107 4 46
8 93 10 102 2 10 4 35 4 55 l1 37 58 -4 c31 -3 75 -7 97 -9 22 -3 110 -12 195
-21 85 -8 180 -18 210 -22 87 -10 103 -11 138 -12 l33 -1 -6 -67 c-3 -38 -7
-84 -10 -103 -2 -19 -7 -69 -11 -110 -3 -41 -8 -88 -10 -105 -6 -53 -6 -328 1
-380 33 -259 88 -450 190 -660 136 -279 315 -496 560 -678 134 -100 141 -104
290 -177 156 -76 271 -114 475 -155 93 -18 342 -26 449 -13 110 13 150 18 163
23 7 2 25 6 39 9 153 25 412 133 576 240 133 86 322 248 324 277 4 67 0 1026
-5 1099 -10 151 -29 265 -71 430 -113 444 -392 881 -739 1158 -39 31 -73 60
-76 63 -3 3 -48 34 -100 68 -211 138 -478 249 -715 297 -188 38 -229 39 -1249
39 l-979 0 -40 -65 c-93 -152 -205 -387 -275 -580 -70 -196 -145 -491 -167
-660 -3 -25 -8 -56 -10 -70 -2 -14 -7 -52 -10 -85 -3 -33 -8 -80 -11 -105 -7
-64 -7 -455 0 -515 3 -27 8 -75 11 -105 3 -30 8 -72 11 -92 2 -21 7 -50 9 -65
6 -46 22 -128 50 -263 51 -242 174 -576 298 -810 147 -279 292 -485 505 -720
198 -219 495 -458 737 -595 28 -16 57 -34 65 -41 8 -7 20 -14 25 -15 6 -2 73
-33 150 -70 77 -36 215 -97 307 -134 l166 -69 -24 -65 c-97 -259 -239 -628
-245 -635 -12 -13 -434 167 -629 268 -202 105 -434 254 -595 380 -38 31 -75
59 -80 63 -107 81 -397 367 -519 513 -93 111 -222 284 -291 390 -26 41 -56 87
-67 102 -10 15 -18 29 -18 32 0 2 -18 33 -40 69 -22 36 -66 117 -97 179 -52
101 -72 143 -133 283 -29 65 -88 218 -95 245 -3 14 -10 34 -15 45 -44 100
-155 550 -175 709 -2 21 -7 55 -9 75 -3 20 -8 59 -11 86 -3 28 -7 61 -10 74
-22 114 -23 692 -1 831 3 14 8 57 12 95 4 39 8 72 9 75 0 3 5 32 9 65 6 50 19
116 51 275 45 225 164 582 272 819 18 41 30 78 25 83 -5 5 -10 6 -13 4z"/>
</g>
</svg>
